<svg width="37" height="41" viewBox="0 0 37 41" fill="none" xmlns="http://www.w3.org/2000/svg">
<path d="M30.875 26.6667V39M30.875 39L26.75 34.8889M30.875 39L35 34.8889M18.5 2H8.6C6.28979 2 5.13467 2 4.25229 2.44809C3.47611 2.84222 2.84507 3.47114 2.4496 4.24471C2 5.12412 2 6.27535 2 8.57778V32.4222C2 34.7246 2 35.876 2.4496 36.7553C2.84507 37.5288 3.47611 38.1578 4.25229 38.5519C5.13467 39 6.28979 39 8.6 39H20.5625M18.5 2L30.875 14.3333M18.5 2V11.0444C18.5 12.1957 18.5 12.7713 18.7248 13.211C18.9226 13.5978 19.238 13.9122 19.6261 14.1093C20.0673 14.3333 20.6448 14.3333 21.8 14.3333H30.875M30.875 14.3333V18.4444M10.25 30.7778H18.5M10.25 22.5556H22.625M10.25 14.3333H12.3125" stroke="black" stroke-width="4" stroke-linecap="round" stroke-linejoin="round"/>
</svg>
