<svg width="37" height="37" viewBox="0 0 37 37" fill="none" xmlns="http://www.w3.org/2000/svg">
<path d="M22.4407 31.3933L22.0883 31.9017L21.9655 32.5334L22.0883 33.1651L22.4407 33.6735L22.9465 34.0276L23.5751 34.151L24.2038 34.0276L24.7096 33.6735L25.062 33.1651L25.1848 32.5334L25.062 31.9017L24.7096 31.3933L24.2038 31.0392L23.5751 30.9158L22.9465 31.0392L22.4407 31.3933ZM32.3675 9.42182L32.7972 9.51436L33.2883 9.69944L33.8249 9.97706L34.3774 10.3929L34.9299 10.9321L35.4665 11.6564L35.9576 12.5657L36.3873 13.691L36.709 15.0483L36.9239 16.6523L37 18.5487L36.9079 20.4452L36.6624 22.0492L36.294 23.3756L35.8029 24.4701L35.2504 25.3486L34.6365 26.042L33.9919 26.5504L33.3473 26.9205L32.7334 27.1673L32.1809 27.3055L31.6897 27.382L31.3214 27.4128L31.0758 27.398H18.4638V28.6628H27.4243L27.4391 32.9184L27.4698 33.4736L27.3936 33.998L27.2254 34.4755L26.9651 34.9222L26.582 35.3071L26.1069 35.6773L25.5237 35.9858L24.8484 36.2473L24.0663 36.4781L23.1761 36.678L22.1939 36.8162L21.1048 36.9235L19.9236 36.9852L18.6344 37L16.6859 36.9383L15.0443 36.7224L13.663 36.4139L12.5433 36.0289L11.6384 35.5662L10.9484 35.0579L10.4265 34.5335L10.0435 34.0091L9.79791 33.5008L9.64443 33.0381L9.58304 32.6531L9.55235 32.3446L9.56708 32.1447V23.9111L9.64443 22.924L9.84334 22.0912L10.165 21.3817L10.5641 20.7956L11.0245 20.3021L11.5303 19.9319L12.0669 19.6234L12.6035 19.4075L13.1093 19.2533L13.5697 19.1607L13.9688 19.099L14.2905 19.0682L14.4894 19.0534H23.4499L24.5083 18.9769L25.4132 18.761L26.1806 18.4377L26.8092 18.0058L27.315 17.5123L27.7288 16.9731L28.0358 16.4178L28.2654 15.8626L28.4188 15.3234L28.5257 14.8299L28.5871 14.398L28.6178 14.0747V9.35642H31.8248L32.0397 9.37123L32.3675 9.42182ZM12.283 3.33144L11.9306 3.8398L11.8078 4.47154L11.9306 5.10328L12.283 5.62767L12.7888 5.96699L13.4175 6.10518L14.0461 5.96575L14.552 5.62644L14.9044 5.10204L15.0271 4.4703L14.9044 3.83856L14.552 3.33021L14.0461 2.9909L13.4175 2.8527L12.7888 2.9909L12.283 3.33144ZM21.9495 0.27762L23.3308 0.586087L24.4506 0.987094L25.3555 1.44979L26.0455 1.94334L26.5673 2.46774L26.9504 2.99213L27.196 3.50048L27.3494 3.96318L27.4108 4.36419L27.4415 4.67266L27.4268 4.87254V13.1061L27.3507 14.0772L27.1518 14.9249L26.8301 15.6343L26.431 16.2204L25.9706 16.6979L25.4647 17.0829L24.9282 17.3753L24.3916 17.5913L23.8858 17.7455L23.4254 17.8528L23.0263 17.9145L22.7034 17.9454H13.544L12.4856 18.0219L11.5807 18.2378L10.8133 18.5771L10.1847 18.9929L9.67881 19.4865L9.26504 20.0257L8.95809 20.5809L8.72849 21.151L8.57501 21.6902L8.46819 22.1837L8.4068 22.5995L8.37611 22.9228V27.6411H4.95421L4.63252 27.5955L4.20279 27.4881L3.71166 27.303L3.17511 27.0254L2.6226 26.6244L2.07008 26.0692L1.53353 25.3597L1.04241 24.4503L0.612676 23.325L0.290991 21.9678L0.0761241 20.349L0 18.4525L0.0920856 16.5721L0.337647 14.9681L0.70599 13.6268L1.19711 12.5324L1.74963 11.6539L2.36353 10.9753L3.00813 10.4669L3.65273 10.0967L4.26663 9.84997L4.81915 9.69574L5.31027 9.61924L5.67861 9.60443H5.92418L6.01626 9.61924H18.5362V8.33971H9.57568L9.56094 4.10014L9.53025 3.5301L9.60637 3.0057L9.77458 2.5282L10.0349 2.09634L10.418 1.69533L10.8931 1.34121L11.4763 1.03275L12.1516 0.755127L12.9337 0.524394L13.8239 0.339314L14.8061 0.18508L15.8952 0.0925402L17.0764 0.0308468L18.3656 0L20.3141 0.0777338L21.9495 0.27762Z" fill="black"/>
</svg>
