<svg width="24" height="23" viewBox="0 0 24 23" fill="none" xmlns="http://www.w3.org/2000/svg">
<path fill-rule="evenodd" clip-rule="evenodd" d="M23.9538 2.74322C24.2992 0.975604 22.6455 -0.493321 21.0422 0.156996L1.38979 8.12843C-0.400612 8.85465 -0.480388 11.4831 1.26233 12.3274L5.54208 14.4012L7.57802 21.8821C7.68377 22.2706 7.97748 22.5715 8.35011 22.6729C8.72274 22.7742 9.11866 22.6611 9.39085 22.3752L12.527 19.0828L16.9201 22.5419C18.1954 23.5459 20.0321 22.8146 20.3524 21.1752L23.9538 2.74322ZM2.17288 10.2563L21.8253 2.28484L18.2238 20.717L13.0769 16.6643C12.6444 16.3237 12.0392 16.3689 11.6569 16.7703L10.3136 18.1805L10.7172 15.8502L18.6254 7.5479C19.0103 7.14386 19.0509 6.50318 18.7206 6.04908C18.3902 5.59498 17.7908 5.46761 17.3182 5.75111L6.39681 12.3029L2.17288 10.2563ZM7.72844 14.1313L8.38723 16.5521L8.64015 15.0916C8.67969 14.8633 8.78458 14.6531 8.94084 14.4891L11.3526 11.9573L7.72844 14.1313Z" fill="white"/>
</svg>
